# Blender 4.1.1
# www.blender.org
mtllib chain_link2.mtl
o link
v -0.025730 0.113937 -0.105603
v -0.005730 0.121591 -0.124081
v 0.014270 0.121591 -0.124081
v 0.034270 0.113937 -0.105603
v 0.014270 0.106283 -0.087126
v -0.005730 0.106283 -0.087126
v -0.025730 -0.076063 -0.105603
v -0.005730 -0.083717 -0.124081
v 0.014270 -0.083717 -0.124081
v 0.034270 -0.076063 -0.105603
v 0.014270 -0.068409 -0.087126
v -0.005730 -0.068409 -0.087126
v -0.025730 -0.081063 -0.100603
v -0.005730 -0.099541 -0.108257
v 0.014270 -0.099541 -0.108257
v 0.034270 -0.081063 -0.100603
v 0.014270 -0.062585 -0.092950
v -0.005730 -0.062585 -0.092950
v -0.025730 -0.081063 0.025397
v -0.005730 -0.099541 0.033050
v 0.014270 -0.099541 0.033050
v 0.034270 -0.081063 0.025397
v 0.014270 -0.062585 0.017743
v -0.005730 -0.062585 0.017743
v -0.025730 -0.076063 0.030397
v -0.005730 -0.083717 0.048874
v 0.014270 -0.083717 0.048874
v 0.034270 -0.076063 0.030397
v 0.014270 -0.068409 0.011919
v -0.005730 -0.068409 0.011919
v -0.025730 0.113937 0.030397
v -0.005730 0.121591 0.048874
v 0.014270 0.121591 0.048874
v 0.034270 0.113937 0.030397
v 0.014270 0.106283 0.011919
v -0.005730 0.106283 0.011919
v -0.025730 0.118937 0.025397
v -0.005730 0.137415 0.033050
v 0.014270 0.137415 0.033050
v 0.034270 0.118937 0.025397
v 0.014270 0.100459 0.017743
v -0.005730 0.100459 0.017743
v -0.025730 0.118937 -0.100603
v -0.005730 0.137415 -0.108257
v 0.014270 0.137415 -0.108257
v 0.034270 0.118937 -0.100603
v 0.014270 0.100459 -0.092950
v -0.005730 0.100459 -0.092950
v 0.068460 -0.048616 -0.075069
v 0.089072 -0.040963 -0.057277
v 0.091324 -0.040963 -0.037404
v 0.075215 -0.048616 -0.015451
v 0.054604 -0.056270 -0.033243
v 0.052352 -0.056270 -0.053116
v 0.068460 -0.238616 -0.075069
v 0.089072 -0.246270 -0.057277
v 0.091324 -0.246270 -0.037404
v 0.075216 -0.238616 -0.015451
v 0.054604 -0.230963 -0.033243
v 0.052352 -0.230963 -0.053116
v 0.063492 -0.243616 -0.074506
v 0.073349 -0.262094 -0.055495
v 0.075600 -0.262094 -0.035622
v 0.070247 -0.243616 -0.014888
v 0.060390 -0.225139 -0.033899
v 0.058139 -0.225139 -0.053771
v -0.061707 -0.243616 -0.060319
v -0.067060 -0.262094 -0.039585
v -0.064808 -0.262094 -0.019712
v -0.054951 -0.243616 -0.000701
v -0.049598 -0.225139 -0.021435
v -0.051850 -0.225139 -0.041308
v -0.066675 -0.238616 -0.059756
v -0.082784 -0.246270 -0.037803
v -0.080532 -0.246270 -0.017930
v -0.059920 -0.238616 -0.000138
v -0.043811 -0.230963 -0.022091
v -0.046063 -0.230963 -0.041964
v -0.066675 -0.048616 -0.059756
v -0.082784 -0.040963 -0.037803
v -0.080532 -0.040963 -0.017930
v -0.059920 -0.048616 -0.000138
v -0.043811 -0.056270 -0.022091
v -0.046063 -0.056270 -0.041964
v -0.061707 -0.043616 -0.060319
v -0.067060 -0.025139 -0.039585
v -0.064808 -0.025139 -0.019712
v -0.054951 -0.043616 -0.000701
v -0.049598 -0.062094 -0.021435
v -0.051850 -0.062094 -0.041308
v 0.063492 -0.043616 -0.074506
v 0.073348 -0.025139 -0.055495
v 0.075600 -0.025139 -0.035622
v 0.070247 -0.043616 -0.014888
v 0.060390 -0.062094 -0.033899
v 0.058139 -0.062094 -0.053771
vn -0.6786 -0.0000 0.7345
vn -0.6786 -0.0000 -0.7345
vn -0.0000 -0.0000 -1.0000
vn 0.6786 -0.0000 -0.7345
vn 0.6786 -0.0000 0.7345
vn -0.0000 -0.0000 1.0000
vn 0.6786 -0.5194 -0.5194
vn -0.6786 -0.5194 -0.5194
vn -0.0000 -0.7071 -0.7071
vn -0.6786 0.7345 -0.0000
vn -0.6786 -0.7345 -0.0000
vn -0.0000 -1.0000 -0.0000
vn 0.6786 -0.7345 -0.0000
vn 0.6786 0.7345 -0.0000
vn -0.0000 1.0000 -0.0000
vn 0.6786 -0.5194 0.5194
vn -0.6786 -0.5194 0.5194
vn -0.0000 -0.7071 0.7071
vn 0.6786 0.5194 0.5194
vn -0.6786 0.5194 0.5194
vn -0.0000 0.7071 0.7071
vn 0.6786 0.5194 -0.5194
vn -0.6786 0.5194 -0.5194
vn -0.0000 0.7071 -0.7071
vn -0.8062 -0.0000 -0.5916
vn 0.6534 -0.0000 -0.7570
vn 0.9936 -0.0000 -0.1126
vn 0.8062 -0.0000 0.5916
vn -0.6534 -0.0000 0.7570
vn -0.9936 -0.0000 0.1126
vn 0.5925 -0.5194 0.6158
vn 0.4397 -0.5194 -0.7328
vn 0.7026 -0.7071 -0.0796
vn -0.0764 0.7345 -0.6743
vn -0.0764 -0.7345 -0.6743
vn 0.0764 -0.7345 0.6743
vn 0.0764 0.7345 0.6743
vn -0.4396 -0.5194 0.7328
vn -0.5925 -0.5194 -0.6158
vn -0.7026 -0.7071 0.0796
vn -0.4397 -0.5194 0.7328
vn -0.4397 0.5194 0.7328
vn -0.5925 0.5194 -0.6158
vn -0.7026 0.7071 0.0796
vn 0.5925 0.5194 0.6158
vn 0.4397 0.5194 -0.7328
vn 0.7026 0.7071 -0.0796
vt 0.000000 1.000000
vt 0.125000 1.000000
vt 0.125000 0.833333
vt 0.000000 0.833333
vt 0.000000 0.166667
vt 0.125000 0.166667
vt 0.125000 0.000000
vt 0.000000 0.000000
vt 0.000000 0.333333
vt 0.125000 0.333333
vt 0.000000 0.500000
vt 0.125000 0.500000
vt 0.000000 0.666667
vt 0.125000 0.666667
vt 0.250000 1.000000
vt 0.250000 0.833333
vt 0.250000 0.166667
vt 0.250000 0.000000
vt 0.250000 0.333333
vt 0.250000 0.500000
vt 0.250000 0.666667
vt 0.375000 1.000000
vt 0.375000 0.833333
vt 0.375000 0.166667
vt 0.375000 0.000000
vt 0.375000 0.333333
vt 0.375000 0.500000
vt 0.375000 0.666667
vt 0.500000 1.000000
vt 0.500000 0.833333
vt 0.500000 0.166667
vt 0.500000 0.000000
vt 0.500000 0.333333
vt 0.500000 0.500000
vt 0.500000 0.666667
vt 0.625000 1.000000
vt 0.625000 0.833333
vt 0.625000 0.166667
vt 0.625000 0.000000
vt 0.625000 0.333333
vt 0.625000 0.500000
vt 0.625000 0.666667
vt 0.750000 1.000000
vt 0.750000 0.833333
vt 0.750000 0.166667
vt 0.750000 0.000000
vt 0.750000 0.333333
vt 0.750000 0.500000
vt 0.750000 0.666667
vt 0.875000 1.000000
vt 0.875000 0.833333
vt 0.875000 0.166667
vt 0.875000 0.000000
vt 0.875000 0.333333
vt 0.875000 0.500000
vt 0.875000 0.666667
vt 1.000000 1.000000
vt 1.000000 0.833333
vt 1.000000 0.166667
vt 1.000000 0.000000
vt 1.000000 0.333333
vt 1.000000 0.500000
vt 1.000000 0.666667
s 1
f 1/1/1 7/2/1 12/3/1 6/4/1
f 2/5/2 8/6/2 7/7/2 1/8/2
f 3/9/3 9/10/3 8/6/3 2/5/3
f 4/11/4 10/12/4 9/10/4 3/9/4
f 5/13/5 11/14/5 10/12/5 4/11/5
f 6/4/6 12/3/6 11/14/6 5/13/6
f 7/2/7 13/15/7 18/16/7 12/3/7
f 8/6/8 14/17/8 13/18/8 7/7/8
f 9/10/9 15/19/9 14/17/9 8/6/9
f 10/12/7 16/20/7 15/19/7 9/10/7
f 11/14/8 17/21/8 16/20/8 10/12/8
f 12/3/9 18/16/9 17/21/9 11/14/9
f 13/15/10 19/22/10 24/23/10 18/16/10
f 14/17/11 20/24/11 19/25/11 13/18/11
f 15/19/12 21/26/12 20/24/12 14/17/12
f 16/20/13 22/27/13 21/26/13 15/19/13
f 17/21/14 23/28/14 22/27/14 16/20/14
f 18/16/15 24/23/15 23/28/15 17/21/15
f 19/22/16 25/29/16 30/30/16 24/23/16
f 20/24/17 26/31/17 25/32/17 19/25/17
f 21/26/18 27/33/18 26/31/18 20/24/18
f 22/27/16 28/34/16 27/33/16 21/26/16
f 23/28/17 29/35/17 28/34/17 22/27/17
f 24/23/18 30/30/18 29/35/18 23/28/18
f 25/29/2 31/36/2 36/37/2 30/30/2
f 26/31/1 32/38/1 31/39/1 25/32/1
f 27/33/6 33/40/6 32/38/6 26/31/6
f 28/34/5 34/41/5 33/40/5 27/33/5
f 29/35/4 35/42/4 34/41/4 28/34/4
f 30/30/3 36/37/3 35/42/3 29/35/3
f 31/36/19 37/43/19 42/44/19 36/37/19
f 32/38/20 38/45/20 37/46/20 31/39/20
f 33/40/21 39/47/21 38/45/21 32/38/21
f 34/41/19 40/48/19 39/47/19 33/40/19
f 35/42/20 41/49/20 40/48/20 34/41/20
f 36/37/21 42/44/21 41/49/21 35/42/21
f 37/43/11 43/50/11 48/51/11 42/44/11
f 38/45/10 44/52/10 43/53/10 37/46/10
f 39/47/15 45/54/15 44/52/15 38/45/15
f 40/48/14 46/55/14 45/54/14 39/47/14
f 41/49/13 47/56/13 46/55/13 40/48/13
f 42/44/12 48/51/12 47/56/12 41/49/12
f 43/50/22 1/57/22 6/58/22 48/51/22
f 44/52/23 2/59/23 1/60/23 43/53/23
f 45/54/24 3/61/24 2/59/24 44/52/24
f 46/55/22 4/62/22 3/61/22 45/54/22
f 47/56/23 5/63/23 4/62/23 46/55/23
f 48/51/24 6/58/24 5/63/24 47/56/24
f 49/1/25 55/2/25 60/3/25 54/4/25
f 50/5/26 56/6/26 55/7/26 49/8/26
f 51/9/27 57/10/27 56/6/27 50/5/27
f 52/11/28 58/12/28 57/10/28 51/9/28
f 53/13/29 59/14/29 58/12/29 52/11/29
f 54/4/30 60/3/30 59/14/30 53/13/30
f 55/2/31 61/15/31 66/16/31 60/3/31
f 56/6/32 62/17/32 61/18/32 55/7/32
f 57/10/33 63/19/33 62/17/33 56/6/33
f 58/12/31 64/20/31 63/19/31 57/10/31
f 59/14/32 65/21/32 64/20/32 58/12/32
f 60/3/33 66/16/33 65/21/33 59/14/33
f 61/15/34 67/22/34 72/23/34 66/16/34
f 62/17/35 68/24/35 67/25/35 61/18/35
f 63/19/12 69/26/12 68/24/12 62/17/12
f 64/20/36 70/27/36 69/26/36 63/19/36
f 65/21/37 71/28/37 70/27/37 64/20/37
f 66/16/15 72/23/15 71/28/15 65/21/15
f 67/22/38 73/29/38 78/30/38 72/23/38
f 68/24/39 74/31/39 73/32/39 67/25/39
f 69/26/40 75/33/40 74/31/40 68/24/40
f 70/27/41 76/34/41 75/33/41 69/26/41
f 71/28/39 77/35/39 76/34/39 70/27/39
f 72/23/40 78/30/40 77/35/40 71/28/40
f 73/29/26 79/36/26 84/37/26 78/30/26
f 74/31/25 80/38/25 79/39/25 73/32/25
f 75/33/30 81/40/30 80/38/30 74/31/30
f 76/34/29 82/41/29 81/40/29 75/33/29
f 77/35/28 83/42/28 82/41/28 76/34/28
f 78/30/27 84/37/27 83/42/27 77/35/27
f 79/36/42 85/43/42 90/44/42 84/37/42
f 80/38/43 86/45/43 85/46/43 79/39/43
f 81/40/44 87/47/44 86/45/44 80/38/44
f 82/41/42 88/48/42 87/47/42 81/40/42
f 83/42/43 89/49/43 88/48/43 82/41/43
f 84/37/44 90/44/44 89/49/44 83/42/44
f 85/43/35 91/50/35 96/51/35 90/44/35
f 86/45/34 92/52/34 91/53/34 85/46/34
f 87/47/15 93/54/15 92/52/15 86/45/15
f 88/48/37 94/55/37 93/54/37 87/47/37
f 89/49/36 95/56/36 94/55/36 88/48/36
f 90/44/12 96/51/12 95/56/12 89/49/12
f 91/50/45 49/57/45 54/58/45 96/51/45
f 92/52/46 50/59/46 49/60/46 91/53/46
f 93/54/47 51/61/47 50/59/47 92/52/47
f 94/55/45 52/62/45 51/61/45 93/54/45
f 95/56/46 53/63/46 52/62/46 94/55/46
f 96/51/47 54/58/47 53/63/47 95/56/47
